<mxfile host="Electron" modified="2023-06-06T13:14:10.999Z" agent="Mozilla/5.0 (Windows NT 10.0; Win64; x64) AppleWebKit/537.36 (KHTML, like Gecko) draw.io/21.2.1 Chrome/112.0.5615.87 Electron/24.1.2 Safari/537.36" etag="oapr_0Vx6qNrIqmi2X9K" version="21.2.1" type="device">
  <diagram name="第 1 页" id="piKb0NegRoMQsl0-bV-4">
    <mxGraphModel dx="1434" dy="2013" grid="1" gridSize="10" guides="1" tooltips="1" connect="1" arrows="1" fold="1" page="1" pageScale="1" pageWidth="827" pageHeight="1169" math="0" shadow="0">
      <root>
        <mxCell id="0" />
        <mxCell id="1" parent="0" />
        <mxCell id="1dzoD76sMQLWwj2ivfO1-11" style="edgeStyle=orthogonalEdgeStyle;rounded=0;orthogonalLoop=1;jettySize=auto;html=1;exitX=0.5;exitY=1;exitDx=0;exitDy=0;entryX=0.5;entryY=0;entryDx=0;entryDy=0;" parent="1" source="1dzoD76sMQLWwj2ivfO1-1" target="1dzoD76sMQLWwj2ivfO1-9" edge="1">
          <mxGeometry relative="1" as="geometry" />
        </mxCell>
        <mxCell id="1dzoD76sMQLWwj2ivfO1-1" value="二进制编码&lt;br&gt;" style="rounded=0;whiteSpace=wrap;html=1;" parent="1" vertex="1">
          <mxGeometry x="30" y="-60" width="120" height="60" as="geometry" />
        </mxCell>
        <mxCell id="1dzoD76sMQLWwj2ivfO1-8" style="edgeStyle=orthogonalEdgeStyle;rounded=0;orthogonalLoop=1;jettySize=auto;html=1;exitX=0.5;exitY=1;exitDx=0;exitDy=0;entryX=0.5;entryY=0;entryDx=0;entryDy=0;" parent="1" source="1dzoD76sMQLWwj2ivfO1-2" target="1dzoD76sMQLWwj2ivfO1-3" edge="1">
          <mxGeometry relative="1" as="geometry" />
        </mxCell>
        <mxCell id="1dzoD76sMQLWwj2ivfO1-25" style="edgeStyle=orthogonalEdgeStyle;rounded=0;orthogonalLoop=1;jettySize=auto;html=1;exitX=0.75;exitY=1;exitDx=0;exitDy=0;" parent="1" source="1dzoD76sMQLWwj2ivfO1-2" target="1dzoD76sMQLWwj2ivfO1-20" edge="1">
          <mxGeometry relative="1" as="geometry" />
        </mxCell>
        <mxCell id="1dzoD76sMQLWwj2ivfO1-2" value="逻辑代数：&lt;br&gt;与、或、非" style="rounded=0;whiteSpace=wrap;html=1;" parent="1" vertex="1">
          <mxGeometry x="290" y="-60" width="120" height="60" as="geometry" />
        </mxCell>
        <mxCell id="1dzoD76sMQLWwj2ivfO1-14" style="edgeStyle=orthogonalEdgeStyle;rounded=0;orthogonalLoop=1;jettySize=auto;html=1;exitX=0.25;exitY=1;exitDx=0;exitDy=0;entryX=0.75;entryY=0;entryDx=0;entryDy=0;" parent="1" source="1dzoD76sMQLWwj2ivfO1-3" target="1dzoD76sMQLWwj2ivfO1-9" edge="1">
          <mxGeometry relative="1" as="geometry">
            <Array as="points">
              <mxPoint x="220" y="100" />
              <mxPoint x="220" y="120" />
              <mxPoint x="120" y="120" />
            </Array>
          </mxGeometry>
        </mxCell>
        <mxCell id="1dzoD76sMQLWwj2ivfO1-16" style="edgeStyle=orthogonalEdgeStyle;rounded=0;orthogonalLoop=1;jettySize=auto;html=1;exitX=0.25;exitY=1;exitDx=0;exitDy=0;" parent="1" source="1dzoD76sMQLWwj2ivfO1-3" target="1dzoD76sMQLWwj2ivfO1-10" edge="1">
          <mxGeometry relative="1" as="geometry">
            <Array as="points">
              <mxPoint x="220" y="100" />
              <mxPoint x="220" y="120" />
              <mxPoint x="280" y="120" />
            </Array>
          </mxGeometry>
        </mxCell>
        <mxCell id="1dzoD76sMQLWwj2ivfO1-3" value="门电路+组合逻辑电路" style="rounded=0;whiteSpace=wrap;html=1;" parent="1" vertex="1">
          <mxGeometry x="160" y="40" width="120" height="60" as="geometry" />
        </mxCell>
        <mxCell id="1dzoD76sMQLWwj2ivfO1-7" style="edgeStyle=orthogonalEdgeStyle;rounded=0;orthogonalLoop=1;jettySize=auto;html=1;" parent="1" source="1dzoD76sMQLWwj2ivfO1-4" target="1dzoD76sMQLWwj2ivfO1-2" edge="1">
          <mxGeometry relative="1" as="geometry" />
        </mxCell>
        <mxCell id="1dzoD76sMQLWwj2ivfO1-34" style="edgeStyle=orthogonalEdgeStyle;rounded=0;orthogonalLoop=1;jettySize=auto;html=1;exitX=0.5;exitY=1;exitDx=0;exitDy=0;" parent="1" source="1dzoD76sMQLWwj2ivfO1-4" target="1dzoD76sMQLWwj2ivfO1-1" edge="1">
          <mxGeometry relative="1" as="geometry" />
        </mxCell>
        <mxCell id="1dzoD76sMQLWwj2ivfO1-4" value="数据+算法" style="rounded=0;whiteSpace=wrap;html=1;" parent="1" vertex="1">
          <mxGeometry x="160" y="-180" width="120" height="60" as="geometry" />
        </mxCell>
        <mxCell id="1dzoD76sMQLWwj2ivfO1-9" value="编码器、解码器" style="rounded=0;whiteSpace=wrap;html=1;" parent="1" vertex="1">
          <mxGeometry x="30" y="140" width="120" height="60" as="geometry" />
        </mxCell>
        <mxCell id="1dzoD76sMQLWwj2ivfO1-10" value="选择器、比较器" style="rounded=0;whiteSpace=wrap;html=1;" parent="1" vertex="1">
          <mxGeometry x="220" y="140" width="120" height="60" as="geometry" />
        </mxCell>
        <mxCell id="1dzoD76sMQLWwj2ivfO1-12" value="锁存器、触发器" style="rounded=0;whiteSpace=wrap;html=1;" parent="1" vertex="1">
          <mxGeometry x="414" y="140" width="100" height="60" as="geometry" />
        </mxCell>
        <mxCell id="1dzoD76sMQLWwj2ivfO1-30" style="edgeStyle=orthogonalEdgeStyle;rounded=0;orthogonalLoop=1;jettySize=auto;html=1;exitX=0.5;exitY=1;exitDx=0;exitDy=0;entryX=0.57;entryY=0;entryDx=0;entryDy=0;entryPerimeter=0;" parent="1" source="1dzoD76sMQLWwj2ivfO1-20" target="1dzoD76sMQLWwj2ivfO1-12" edge="1">
          <mxGeometry relative="1" as="geometry" />
        </mxCell>
        <mxCell id="1dzoD76sMQLWwj2ivfO1-31" style="edgeStyle=orthogonalEdgeStyle;rounded=0;orthogonalLoop=1;jettySize=auto;html=1;exitX=0.5;exitY=1;exitDx=0;exitDy=0;entryX=0.5;entryY=0;entryDx=0;entryDy=0;" parent="1" source="1dzoD76sMQLWwj2ivfO1-20" target="1dzoD76sMQLWwj2ivfO1-23" edge="1">
          <mxGeometry relative="1" as="geometry" />
        </mxCell>
        <mxCell id="1dzoD76sMQLWwj2ivfO1-33" style="edgeStyle=orthogonalEdgeStyle;rounded=0;orthogonalLoop=1;jettySize=auto;html=1;exitX=0.5;exitY=1;exitDx=0;exitDy=0;" parent="1" source="1dzoD76sMQLWwj2ivfO1-20" target="1dzoD76sMQLWwj2ivfO1-32" edge="1">
          <mxGeometry relative="1" as="geometry" />
        </mxCell>
        <mxCell id="1dzoD76sMQLWwj2ivfO1-20" value="时序逻辑电路" style="rounded=0;whiteSpace=wrap;html=1;" parent="1" vertex="1">
          <mxGeometry x="550" y="40" width="120" height="60" as="geometry" />
        </mxCell>
        <mxCell id="1dzoD76sMQLWwj2ivfO1-23" value="计数器" style="rounded=0;whiteSpace=wrap;html=1;" parent="1" vertex="1">
          <mxGeometry x="550" y="140" width="120" height="60" as="geometry" />
        </mxCell>
        <mxCell id="1dzoD76sMQLWwj2ivfO1-29" style="edgeStyle=orthogonalEdgeStyle;rounded=0;orthogonalLoop=1;jettySize=auto;html=1;exitX=0.5;exitY=1;exitDx=0;exitDy=0;" parent="1" source="1dzoD76sMQLWwj2ivfO1-20" target="1dzoD76sMQLWwj2ivfO1-20" edge="1">
          <mxGeometry relative="1" as="geometry" />
        </mxCell>
        <mxCell id="1dzoD76sMQLWwj2ivfO1-32" value="状态机" style="rounded=0;whiteSpace=wrap;html=1;" parent="1" vertex="1">
          <mxGeometry x="707" y="140" width="120" height="60" as="geometry" />
        </mxCell>
        <mxCell id="_xH4YZr7G8Y5y5JxcdmY-1" value="存储器" style="rounded=0;whiteSpace=wrap;html=1;" vertex="1" parent="1">
          <mxGeometry x="410" y="450" width="120" height="60" as="geometry" />
        </mxCell>
        <mxCell id="_xH4YZr7G8Y5y5JxcdmY-11" style="edgeStyle=orthogonalEdgeStyle;rounded=0;orthogonalLoop=1;jettySize=auto;html=1;exitX=1;exitY=0.5;exitDx=0;exitDy=0;entryX=0;entryY=0.5;entryDx=0;entryDy=0;" edge="1" parent="1" source="_xH4YZr7G8Y5y5JxcdmY-2" target="_xH4YZr7G8Y5y5JxcdmY-6">
          <mxGeometry relative="1" as="geometry" />
        </mxCell>
        <mxCell id="_xH4YZr7G8Y5y5JxcdmY-12" style="edgeStyle=orthogonalEdgeStyle;rounded=0;orthogonalLoop=1;jettySize=auto;html=1;exitX=0.5;exitY=0;exitDx=0;exitDy=0;entryX=0.5;entryY=1;entryDx=0;entryDy=0;" edge="1" parent="1" source="_xH4YZr7G8Y5y5JxcdmY-2" target="_xH4YZr7G8Y5y5JxcdmY-5">
          <mxGeometry relative="1" as="geometry" />
        </mxCell>
        <mxCell id="_xH4YZr7G8Y5y5JxcdmY-13" style="edgeStyle=orthogonalEdgeStyle;rounded=0;orthogonalLoop=1;jettySize=auto;html=1;exitX=0.5;exitY=1;exitDx=0;exitDy=0;entryX=0.5;entryY=0;entryDx=0;entryDy=0;" edge="1" parent="1" source="_xH4YZr7G8Y5y5JxcdmY-2" target="_xH4YZr7G8Y5y5JxcdmY-4">
          <mxGeometry relative="1" as="geometry" />
        </mxCell>
        <mxCell id="_xH4YZr7G8Y5y5JxcdmY-2" value="控制器" style="rounded=0;whiteSpace=wrap;html=1;" vertex="1" parent="1">
          <mxGeometry x="80" y="450" width="120" height="60" as="geometry" />
        </mxCell>
        <mxCell id="_xH4YZr7G8Y5y5JxcdmY-3" value="&lt;span style=&quot;color: rgb(0, 0, 0); font-family: Helvetica; font-size: 12px; font-style: normal; font-variant-ligatures: normal; font-variant-caps: normal; font-weight: 400; letter-spacing: normal; orphans: 2; text-align: center; text-indent: 0px; text-transform: none; widows: 2; word-spacing: 0px; -webkit-text-stroke-width: 0px; background-color: rgb(251, 251, 251); text-decoration-thickness: initial; text-decoration-style: initial; text-decoration-color: initial; float: none; display: inline !important;&quot;&gt;冯诺依曼结构&lt;/span&gt;" style="text;whiteSpace=wrap;html=1;" vertex="1" parent="1">
          <mxGeometry x="70" y="300" width="110" height="40" as="geometry" />
        </mxCell>
        <mxCell id="_xH4YZr7G8Y5y5JxcdmY-4" value="输入、输出" style="rounded=0;whiteSpace=wrap;html=1;" vertex="1" parent="1">
          <mxGeometry x="80" y="545" width="120" height="60" as="geometry" />
        </mxCell>
        <mxCell id="_xH4YZr7G8Y5y5JxcdmY-5" value="算术逻辑单元" style="rounded=0;whiteSpace=wrap;html=1;" vertex="1" parent="1">
          <mxGeometry x="80" y="350" width="120" height="60" as="geometry" />
        </mxCell>
        <mxCell id="_xH4YZr7G8Y5y5JxcdmY-8" style="edgeStyle=orthogonalEdgeStyle;rounded=0;orthogonalLoop=1;jettySize=auto;html=1;exitX=1;exitY=0.5;exitDx=0;exitDy=0;entryX=0;entryY=0.5;entryDx=0;entryDy=0;" edge="1" parent="1" source="_xH4YZr7G8Y5y5JxcdmY-6" target="_xH4YZr7G8Y5y5JxcdmY-1">
          <mxGeometry relative="1" as="geometry" />
        </mxCell>
        <mxCell id="_xH4YZr7G8Y5y5JxcdmY-6" value="总线" style="rounded=0;whiteSpace=wrap;html=1;" vertex="1" parent="1">
          <mxGeometry x="250" y="450" width="120" height="60" as="geometry" />
        </mxCell>
      </root>
    </mxGraphModel>
  </diagram>
</mxfile>
